<?xml version="1.0" encoding="UTF-8"?>
<!-- Generated by Pixelmator Pro 3.6.14 -->
<svg width="1056" height="1056" viewBox="0 0 1056 1056" xmlns="http://www.w3.org/2000/svg">
    <linearGradient id="linearGradient1" x1="528" y1="0" x2="528" y2="1056" gradientUnits="userSpaceOnUse">
        <stop offset="0" stop-color="#ffffff" stop-opacity="1"/>
        <stop offset="1" stop-color="#9d9d9d" stop-opacity="1"/>
    </linearGradient>
    <path id="Rounded-Rectangle" fill="url(#linearGradient1)" fill-rule="evenodd" stroke="none" d="M 0 901 C 0 986.604126 69.395866 1056 155 1056 L 901 1056 C 986.604126 1056 1056 986.604126 1056 901 L 1056 155 C 1056 69.395874 986.604126 0 901 0 L 155 0 C 69.395866 0 0 69.395874 0 155 Z"/>
    <g id="Group">
        <g id="id2">
            <g id="bg-id2"/>
            <g id="bo-id2"/>
        </g>
    </g>
    <g id="g1">
        <filter id="filter1" x="0" y="0" width="1056" height="1056" filterUnits="userSpaceOnUse" primitiveUnits="userSpaceOnUse" color-interpolation-filters="sRGB">
            <feGaussianBlur stdDeviation="33"/>
            <feOffset dx="-0" dy="18" result="offsetblur"/>
            <feFlood flood-color="#000000" flood-opacity="0.5"/>
            <feComposite in2="offsetblur" operator="in"/>
            <feMerge>
                <feMergeNode/>
                <feMergeNode in="SourceGraphic"/>
            </feMerge>
        </filter>
        <path id="Polygon" fill="#556c82" fill-rule="evenodd" stroke="none" filter="url(#filter1)" d="M 527.940491 404 L 423.202942 466 L 423.202942 590 L 527.940491 652 L 632.67804 590 L 632.67804 466 Z"/>
        <filter id="filter2" x="0" y="0" width="1056" height="1056" filterUnits="userSpaceOnUse" primitiveUnits="userSpaceOnUse" color-interpolation-filters="sRGB">
            <feGaussianBlur stdDeviation="33"/>
            <feOffset dx="-0" dy="18" result="offsetblur"/>
            <feFlood flood-color="#000000" flood-opacity="0.5"/>
            <feComposite in2="offsetblur" operator="in"/>
            <feMerge>
                <feMergeNode/>
                <feMergeNode in="SourceGraphic"/>
            </feMerge>
        </filter>
        <path id="Polygon-copy-6" fill="#556c82" fill-rule="evenodd" stroke="none" filter="url(#filter2)" d="M 648.940491 616 L 544.202942 678 L 544.202942 802 L 648.940491 864 L 753.67804 802 L 753.67804 678 Z"/>
        <filter id="filter3" x="0" y="0" width="1056" height="1056" filterUnits="userSpaceOnUse" primitiveUnits="userSpaceOnUse" color-interpolation-filters="sRGB">
            <feGaussianBlur stdDeviation="33"/>
            <feOffset dx="-0" dy="18" result="offsetblur"/>
            <feFlood flood-color="#000000" flood-opacity="0.5"/>
            <feComposite in2="offsetblur" operator="in"/>
            <feMerge>
                <feMergeNode/>
                <feMergeNode in="SourceGraphic"/>
            </feMerge>
        </filter>
        <path id="Polygon-copy" fill="#556c82" fill-rule="evenodd" stroke="none" filter="url(#filter3)" d="M 285.940491 404 L 181.202957 466 L 181.202957 590 L 285.940491 652 L 390.67804 590 L 390.67804 466 Z"/>
        <filter id="filter4" x="0" y="0" width="1056" height="1056" filterUnits="userSpaceOnUse" primitiveUnits="userSpaceOnUse" color-interpolation-filters="sRGB">
            <feGaussianBlur stdDeviation="33"/>
            <feOffset dx="-0" dy="18" result="offsetblur"/>
            <feFlood flood-color="#000000" flood-opacity="0.5"/>
            <feComposite in2="offsetblur" operator="in"/>
            <feMerge>
                <feMergeNode/>
                <feMergeNode in="SourceGraphic"/>
            </feMerge>
        </filter>
        <path id="Polygon-copy-2" fill="#556c82" fill-rule="evenodd" stroke="none" filter="url(#filter4)" d="M 769.940491 404 L 665.202942 466 L 665.202942 590 L 769.940491 652 L 874.67804 590 L 874.67804 466 Z"/>
        <filter id="filter5" x="0" y="0" width="1056" height="1056" filterUnits="userSpaceOnUse" primitiveUnits="userSpaceOnUse" color-interpolation-filters="sRGB">
            <feGaussianBlur stdDeviation="33"/>
            <feOffset dx="-0" dy="18" result="offsetblur"/>
            <feFlood flood-color="#000000" flood-opacity="0.5"/>
            <feComposite in2="offsetblur" operator="in"/>
            <feMerge>
                <feMergeNode/>
                <feMergeNode in="SourceGraphic"/>
            </feMerge>
        </filter>
        <path id="Polygon-copy-3" fill="#556c82" fill-rule="evenodd" stroke="none" filter="url(#filter5)" d="M 406.940491 194 L 302.202942 256 L 302.202942 380 L 406.940491 442 L 511.67804 380 L 511.67804 256 Z"/>
        <filter id="filter6" x="0" y="0" width="1056" height="1056" filterUnits="userSpaceOnUse" primitiveUnits="userSpaceOnUse" color-interpolation-filters="sRGB">
            <feGaussianBlur stdDeviation="33"/>
            <feOffset dx="-0" dy="18" result="offsetblur"/>
            <feFlood flood-color="#000000" flood-opacity="0.5"/>
            <feComposite in2="offsetblur" operator="in"/>
            <feMerge>
                <feMergeNode/>
                <feMergeNode in="SourceGraphic"/>
            </feMerge>
        </filter>
        <path id="Polygon-copy-4" fill="#556c82" fill-rule="evenodd" stroke="none" filter="url(#filter6)" d="M 648.940491 194 L 544.202942 256 L 544.202942 380 L 648.940491 442 L 753.67804 380 L 753.67804 256 Z"/>
        <filter id="filter7" x="0" y="0" width="1056" height="1056" filterUnits="userSpaceOnUse" primitiveUnits="userSpaceOnUse" color-interpolation-filters="sRGB">
            <feGaussianBlur stdDeviation="33"/>
            <feOffset dx="-0" dy="18" result="offsetblur"/>
            <feFlood flood-color="#000000" flood-opacity="0.5"/>
            <feComposite in2="offsetblur" operator="in"/>
            <feMerge>
                <feMergeNode/>
                <feMergeNode in="SourceGraphic"/>
            </feMerge>
        </filter>
        <path id="Polygon-copy-5" fill="#556c82" fill-rule="evenodd" stroke="none" filter="url(#filter7)" d="M 406.940491 616 L 302.202942 678 L 302.202942 802 L 406.940491 864 L 511.67804 802 L 511.67804 678 Z"/>
    </g>
    <path id="Oval" fill="none" stroke="#4a4c49" stroke-width="20" stroke-linecap="round" stroke-linejoin="round" d="M 988 528 C 988 273.949036 782.050964 68 528 68 C 273.949036 68 68 273.949036 68 528 C 68 782.050964 273.949036 988 528 988 C 782.050964 988 988 782.050964 988 528 Z"/>
</svg>
